<svg version="1.1" xmlns="http://www.w3.org/2000/svg" viewBox="0 0 76.2583726203984 76.25837262039852" width="152.5167452407968" height="152.51674524079704">
  <!-- svg-source:excalidraw -->
  
  <defs>
    <style class="style-fonts">
      @font-face {
        font-family: "Virgil";
        src: url("https://excalidraw.com/Virgil.woff2");
      }
      @font-face {
        font-family: "Cascadia";
        src: url("https://excalidraw.com/Cascadia.woff2");
      }
      @font-face {
        font-family: "Assistant";
        src: url("https://excalidraw.com/Assistant-Regular.woff2");
      }
    </style>
    
  </defs>
  <rect x="0" y="0" width="76.2583726203984" height="76.25837262039852" fill="#ffffff"></rect><g stroke-linecap="round" transform="translate(10 10) rotate(0 28.129186310199202 28.12918631019926)"><path d="M-0.07 29.09 C-0.07 29.09, -0.07 29.09, -0.07 29.09 M-0.07 29.09 C-0.07 29.09, -0.07 29.09, -0.07 29.09 M11.34 40.34 C21.37 28.81, 31.39 17.28, 38.24 9.39 M11.34 40.34 C17.75 32.97, 24.15 25.6, 38.24 9.39 M23.42 50.83 C29.56 43.77, 35.71 36.7, 49.01 21.4 M23.42 50.83 C31.99 40.97, 40.57 31.11, 49.01 21.4 M29.15 56.39 C29.15 56.39, 29.15 56.39, 29.15 56.39 M29.15 56.39 C29.15 56.39, 29.15 56.39, 29.15 56.39 M40.41 44.97 C30.19 36.1, 19.98 27.22, 10.22 18.73 M40.41 44.97 C33.92 39.33, 27.43 33.69, 10.22 18.73 M51.66 33.55 C43.29 26.28, 34.91 19, 21.47 7.31 M51.66 33.55 C44.3 27.16, 36.94 20.76, 21.47 7.31" stroke="#555555" stroke-width="2" fill="none"></path><path d="M29 0 C37.04 8.56, 45.09 17.12, 56.26 29 M29 0 C37.28 8.81, 45.56 17.61, 56.26 29 M56.26 29 C50.56 34.7, 44.86 40.39, 29 56.26 M56.26 29 C47.97 37.29, 39.69 45.57, 29 56.26 M29 56.26 C22.98 50.6, 16.95 44.94, 0 29 M29 56.26 C22.61 50.25, 16.22 44.24, 0 29 M0 29 C10.82 18.18, 21.64 7.36, 29 0 M0 29 C10.67 18.33, 21.34 7.66, 29 0" stroke="#555" stroke-width="4" fill="none"></path></g></svg>